<svg width="36" height="40" viewBox="0 0 36 40" fill="none" xmlns="http://www.w3.org/2000/svg">
<path d="M20.875 2.64167L22.7333 4.91667L17.5416 11.4833L12.4083 4.91667L14.2999 2.64167H20.875ZM22.0833 0H13.0666L9.3666 4.44167L9.0166 4.85834L9.3666 5.31667L17.0333 15.075L17.5749 15.7667L18.1166 15.075L25.7833 5.31667L26.1333 4.85834L25.7833 4.44167L22.0833 0Z" fill="#2DA192"/>
<path d="M27.2504 16.175C26.9211 18.1777 26.0179 20.0419 24.6504 21.5417C23.0563 22.9571 21.0896 23.8855 18.9837 24.2167L20.0421 21.6667C20.4596 20.587 21.0918 19.6033 21.9004 18.775C23.3982 17.4047 25.2633 16.5011 27.2671 16.175M7.91704 16.175C9.91976 16.5043 11.784 17.4075 13.2837 18.775C14.0826 19.6078 14.7086 20.5906 15.1254 21.6667L16.1837 24.225C14.0639 23.9071 12.086 22.9675 10.5004 21.525C9.13286 20.0253 8.2297 18.1611 7.90037 16.1583M27.2504 29.1667C26.9211 31.1694 26.0179 33.0336 24.6504 34.5334C23.0584 35.952 21.0907 36.8808 18.9837 37.2084L20.0421 34.675C20.4596 33.5954 21.0918 32.6117 21.9004 31.7834C23.3916 30.4099 25.2507 29.5006 27.2504 29.1667ZM7.90037 29.1667C9.90309 29.496 11.7673 30.3992 13.267 31.7667C14.0719 32.6044 14.7034 33.5927 15.1254 34.675L16.1837 37.2334C14.0639 36.9155 12.086 35.9758 10.5004 34.5334C9.13286 33.0336 8.2297 31.1694 7.90037 29.1667ZM6.1837 13.3333C6.02786 13.3288 5.87285 13.3577 5.72911 13.418C5.58536 13.4784 5.45622 13.5689 5.35037 13.6833C5.23633 13.7895 5.14616 13.9187 5.08582 14.0624C5.02548 14.2061 4.99635 14.3609 5.00036 14.5167C5.00036 14.7417 5.1587 20.0084 8.59204 23.4334C11.0278 25.6932 14.2196 26.9622 17.5421 26.9917C20.8496 26.9017 24.0156 25.6305 26.4671 23.4084C29.8921 19.9834 30.0587 14.7167 30.0587 14.4917C30.0611 14.1923 29.9466 13.9038 29.7397 13.6875C29.5327 13.4712 29.2496 13.3442 28.9504 13.3333C28.7337 13.3333 23.4671 13.4917 20.0337 16.925C18.959 17.9944 18.1114 19.2699 17.5421 20.675C16.9868 19.2695 16.1567 17.989 15.1004 16.9083C11.7087 13.475 6.44203 13.3333 6.21703 13.3333H6.1837ZM6.1837 26.3417C6.02786 26.3371 5.87285 26.366 5.72911 26.4264C5.58536 26.4868 5.45622 26.5772 5.35037 26.6917C5.247 26.7986 5.16639 26.9253 5.11339 27.0643C5.0604 27.2032 5.03612 27.3515 5.04203 27.5C5.04203 27.725 5.20036 32.9917 8.6337 36.4167C11.0551 38.676 14.2306 39.9534 17.5421 40.0001C20.8496 39.91 24.0156 38.6389 26.4671 36.4167C29.8921 32.9917 30.0587 27.725 30.0587 27.5C30.0621 27.3462 30.0345 27.1933 29.9777 27.0503C29.9209 26.9073 29.836 26.7772 29.728 26.6677C29.62 26.5581 29.4911 26.4713 29.3489 26.4125C29.2068 26.3536 29.0542 26.3239 28.9004 26.325C28.6837 26.325 23.4171 26.4834 19.9837 29.9167C18.9251 30.9955 18.0946 32.2765 17.5421 33.6834C16.9868 32.2779 16.1567 30.9973 15.1004 29.9167C11.7087 26.4834 6.44203 26.325 6.21703 26.325L6.1837 26.3417Z" fill="#2DA192"/>
</svg>
