<svg width="24" height="24" viewBox="0 0 24 24" fill="none" xmlns="http://www.w3.org/2000/svg">
<g id="image">
<path id="image_2" fill-rule="evenodd" clip-rule="evenodd" d="M5.33335 5.33331C4.42247 5.33331 3.66669 6.08909 3.66669 6.99998V17C3.66669 17.9109 4.42247 18.6666 5.33335 18.6666H18.6667C19.5776 18.6666 20.3334 17.9109 20.3334 17V6.99998C20.3334 6.08909 19.5776 5.33331 18.6667 5.33331H5.33335ZM5.33335 6.99998H18.6667V17H5.33335V6.99998ZM10.3334 8.66665C9.87312 8.66665 9.50002 9.03974 9.50002 9.49998C9.50002 9.96022 9.87312 10.3333 10.3334 10.3333C10.7936 10.3333 11.1667 9.96022 11.1667 9.49998C11.1667 9.03974 10.7936 8.66665 10.3334 8.66665ZM14.0834 11.1666L11.1667 14.5L9.08335 12.4166L6.81447 15.3333H17.2084L14.0834 11.1666Z" fill="#212121"/>
</g>
</svg>
