<svg width="24" height="24" viewBox="0 0 24 24" fill="none" xmlns="http://www.w3.org/2000/svg">
<path d="M5.77778 4C4.80617 4 4 4.80617 4 5.77778V9.33333C4 10.3049 4.80617 11.1111 5.77778 11.1111H9.33333C10.3049 11.1111 11.1111 10.3049 11.1111 9.33333V5.77778C11.1111 4.80617 10.3049 4 9.33333 4H5.77778ZM5.77778 5.77778H9.33333V9.33333H5.77778V5.77778ZM5.77778 12.8889V14.6667H7.55556V12.8889H5.77778ZM14.6667 12.8889C13.6951 12.8889 12.8889 13.6951 12.8889 14.6667V18.2222C12.8889 19.1938 13.6951 20 14.6667 20H18.2222C19.1938 20 20 19.1938 20 18.2222V14.6667C20 13.6951 19.1938 12.8889 18.2222 12.8889H14.6667ZM14.6667 14.6667H18.2222V18.2222H14.6667V14.6667ZM5.77778 16.4444V18.2222H7.55556V16.4444H5.77778ZM9.33333 16.4444V18.2222H11.1111V16.4444H9.33333Z" fill="#2F6FA7"/>
</svg>
