<svg width="40" height="40" viewBox="0 0 40 40" fill="none" xmlns="http://www.w3.org/2000/svg">
<circle cx="20" cy="20" r="20" fill="#2F6FA7"/>
<path d="M19.8398 9.33333C19.274 9.33333 18.7314 9.55809 18.3313 9.95817C17.9313 10.3582 17.7065 10.9009 17.7065 11.4667C17.7068 11.8409 17.8055 12.2084 17.9927 12.5324C18.18 12.8564 18.4491 13.1254 18.7732 13.3125V15.8854C19.1166 15.7958 19.4697 15.7333 19.8398 15.7333C20.21 15.7333 20.563 15.7958 20.9065 15.8854V13.3104C21.2303 13.1235 21.4992 12.8548 21.6864 12.5312C21.8736 12.2076 21.9725 11.8405 21.9732 11.4667C21.9732 10.9009 21.7484 10.3582 21.3483 9.95817C20.9483 9.55809 20.4056 9.33333 19.8398 9.33333ZM11.3065 13.6C10.7407 13.6 10.1981 13.8248 9.79802 14.2248C9.39794 14.6249 9.17318 15.1675 9.17318 15.7333C9.17318 16.2991 9.39794 16.8417 9.79802 17.2418C10.1981 17.6419 10.7407 17.8667 11.3065 17.8667C11.7244 17.8662 12.133 17.7431 12.4815 17.5125L15.6711 19.1083C15.8247 18.3862 16.1695 17.7428 16.6378 17.2062L13.4336 15.6042C13.4007 15.0621 13.1624 14.553 12.7671 14.1806C12.3719 13.8082 11.8495 13.6006 11.3065 13.6ZM28.3732 13.6C27.8301 13.6006 27.3078 13.8082 26.9125 14.1806C26.5173 14.553 26.279 15.0621 26.2461 15.6042L23.0419 17.2083C23.5102 17.7438 23.855 18.3862 24.0086 19.1083L27.2003 17.5125C27.5482 17.7427 27.956 17.8658 28.3732 17.8667C28.939 17.8667 29.4816 17.6419 29.8817 17.2418C30.2817 16.8417 30.5065 16.2991 30.5065 15.7333C30.5065 15.1675 30.2817 14.6249 29.8817 14.2248C29.4816 13.8248 28.939 13.6 28.3732 13.6ZM19.8398 17.8667C19.274 17.8667 18.7314 18.0914 18.3313 18.4915C17.9313 18.8916 17.7065 19.4342 17.7065 20C17.7065 20.5658 17.9313 21.1084 18.3313 21.5085C18.7314 21.9086 19.274 22.1333 19.8398 22.1333C20.4056 22.1333 20.9483 21.9086 21.3483 21.5085C21.7484 21.1084 21.9732 20.5658 21.9732 20C21.9732 19.4342 21.7484 18.8916 21.3483 18.4915C20.9483 18.0914 20.4056 17.8667 19.8398 17.8667ZM15.6711 20.8917L12.4794 22.4875C12.1315 22.2573 11.7237 22.1342 11.3065 22.1333C10.7407 22.1333 10.1981 22.3581 9.79802 22.7582C9.39794 23.1582 9.17318 23.7009 9.17318 24.2667C9.17318 24.8325 9.39794 25.3751 9.79802 25.7752C10.1981 26.1752 10.7407 26.4 11.3065 26.4C11.8495 26.3994 12.3719 26.1917 12.7671 25.8194C13.1624 25.447 13.4007 24.9379 13.4336 24.3958L16.6378 22.7917C16.1695 22.2562 15.8247 21.6138 15.6711 20.8917ZM24.0086 20.8937C23.855 21.6148 23.5102 22.2572 23.0419 22.7937L26.2461 24.3958C26.279 24.9379 26.5173 25.447 26.9125 25.8194C27.3078 26.1917 27.8301 26.3994 28.3732 26.4C28.939 26.4 29.4816 26.1752 29.8817 25.7752C30.2817 25.3751 30.5065 24.8325 30.5065 24.2667C30.5065 23.7009 30.2817 23.1582 29.8817 22.7582C29.4816 22.3581 28.939 22.1333 28.3732 22.1333C27.9553 22.1337 27.5467 22.2569 27.1982 22.4875L24.0086 20.8937ZM18.7732 24.1146V26.6896C18.4494 26.8765 18.1805 27.1452 17.9933 27.4688C17.8061 27.7924 17.7072 28.1595 17.7065 28.5333C17.7065 29.0991 17.9313 29.6417 18.3313 30.0418C18.7314 30.4419 19.274 30.6667 19.8398 30.6667C20.4056 30.6667 20.9483 30.4419 21.3483 30.0418C21.7484 29.6417 21.9732 29.0991 21.9732 28.5333C21.9729 28.1591 21.8742 27.7916 21.6869 27.4676C21.4997 27.1436 21.2306 26.8746 20.9065 26.6875V24.1146C20.563 24.2042 20.21 24.2667 19.8398 24.2667C19.4697 24.2667 19.1166 24.2042 18.7732 24.1146Z" fill="white"/>
</svg>
