<svg width="24" height="24" viewBox="0 0 24 24" fill="none" xmlns="http://www.w3.org/2000/svg">
<path d="M14.2566 4.34917C14.1276 4.34457 13.9973 4.37103 13.8829 4.4269L12.0007 5.34778L10.1171 4.4269C9.7482 4.24703 9.30548 4.38934 9.10954 4.74832L8.08999 6.61848L6.02548 6.98026C5.62288 7.05067 5.34706 7.4267 5.3991 7.83237L5.67268 9.94472L4.21511 11.4501C3.93038 11.744 3.92823 12.2108 4.20913 12.5085L5.67268 14.0558L5.37967 16.1308C5.32226 16.5364 5.59375 16.9146 5.99558 16.9904L8.08999 17.382L9.07217 19.2328C9.26352 19.5948 9.70328 19.7422 10.0753 19.5661L11.9993 18.6527H12.0007L13.8829 19.5736C13.9908 19.6264 14.1052 19.6513 14.2177 19.6513C14.4902 19.6513 14.7527 19.507 14.8905 19.2537L15.91 17.3835L17.9745 17.0203C18.3771 16.9498 18.6529 16.5738 18.6009 16.1681L18.3288 14.0573L19.7849 12.5504C20.0696 12.2565 20.0718 11.7912 19.7909 11.4935L18.3288 9.94472L18.6218 7.86974C18.6792 7.46408 18.4063 7.08593 18.0044 7.01016L15.9115 6.61848L14.9293 4.76775C14.8635 4.64375 14.743 4.52576 14.6229 4.45381C14.513 4.38875 14.3856 4.35376 14.2566 4.34917ZM13.9113 6.11469L14.7335 7.66643C14.8445 7.87539 15.045 8.02053 15.2776 8.0611L17.0028 8.37952L16.7606 10.1017C16.7277 10.3351 16.8024 10.5709 16.9669 10.74L18.1748 12.0122L17.227 12.9929L16.9669 13.262C16.8031 13.4311 16.7277 13.6669 16.7606 13.9003L16.9894 15.6389L15.2776 15.9394C15.045 15.9807 14.846 16.1259 14.735 16.3341L13.8978 17.8783L12.3356 17.1144C12.23 17.0632 12.1156 17.0367 12.0007 17.0367C11.8859 17.0367 11.7708 17.0624 11.6644 17.1144L10.0812 17.8709L9.26651 16.3341C9.15552 16.1251 8.95653 15.98 8.72384 15.9394L6.99869 15.621L7.24087 13.9018C7.27455 13.6676 7.1984 13.4312 7.03307 13.2605L5.82516 11.9898L7.03307 10.7415C7.19763 10.5708 7.27455 10.3344 7.24087 10.1002L7.01065 8.36158L8.72384 8.0611C8.95576 8.02053 9.15552 7.87539 9.26651 7.66643L10.1022 6.12216L11.6644 6.88608C11.8764 6.98941 12.1236 6.98941 12.3356 6.88608L13.9113 6.11469ZM13.8395 8.59479L9.24408 14.7166L10.162 15.4057L14.7574 9.28395L13.8395 8.59479ZM10.0872 8.93862C9.45347 8.93862 8.93912 9.45298 8.93912 10.0867C8.93912 10.7205 9.45347 11.2348 10.0872 11.2348C10.721 11.2348 11.2353 10.7205 11.2353 10.0867C11.2353 9.45298 10.721 8.93862 10.0872 8.93862ZM13.9143 12.7657C13.2805 12.7657 12.7662 13.28 12.7662 13.9138C12.7662 14.5475 13.2805 15.0619 13.9143 15.0619C14.548 15.0619 15.0624 14.5475 15.0624 13.9138C15.0624 13.28 14.548 12.7657 13.9143 12.7657Z" fill="#9E9E9E"/>
</svg>
