<svg width="40" height="40" viewBox="0 0 40 40" fill="none" xmlns="http://www.w3.org/2000/svg">
<circle cx="20" cy="20" r="20" fill="#2F6FA7"/>
<path d="M30.044 16.175C29.8565 15.4333 29.1607 15.2 28.3732 15.2C27.5398 15.2 26.2398 14.0875 25.5898 13.5292C25.2648 13.2542 24.569 13.0667 24.1065 13.0667H15.5732C15.1107 13.0667 14.4148 13.2542 14.0898 13.5292C13.4398 14.1333 12.1398 15.2 11.3065 15.2C10.519 15.2 9.86901 15.4333 9.63568 16.175C9.21901 17.75 9.17318 21.3667 9.17318 22.6667C9.17318 23.7333 9.96068 24.5208 10.2398 24.8C10.7982 25.3583 11.7232 25.775 14.5065 25.8667C15.3857 26.6083 16.594 26.9333 19.8398 26.9333C23.0857 26.9333 24.294 26.6083 25.1732 25.8667C27.9107 25.775 28.8357 25.4042 29.4398 24.8C29.719 24.5208 30.5065 23.7333 30.5065 22.6667C30.5065 21.4125 30.4607 17.75 30.044 16.175ZM14.5065 19.4667H13.4398V20.5333H12.3732V19.4667H11.3065V18.4H12.3732V17.3333H13.4398V18.4H14.5065V19.4667ZM24.1065 16.6625V22.6667H15.5732V16.2667H24.1065V16.6625ZM26.2398 21.6C25.6523 21.6 25.1732 21.1208 25.1732 20.5333C25.1732 19.9458 25.6523 19.4667 26.2398 19.4667C26.8273 19.4667 27.3065 19.9458 27.3065 20.5333C27.3065 21.1208 26.8273 21.6 26.2398 21.6ZM28.3732 19.4667C27.7857 19.4667 27.3065 18.9875 27.3065 18.4C27.3065 17.8125 27.7857 17.3333 28.3732 17.3333C28.9607 17.3333 29.4398 17.8125 29.4398 18.4C29.4398 18.9875 28.9607 19.4667 28.3732 19.4667Z" fill="white"/>
</svg>
