<svg width="20" height="20" viewBox="0 0 20 20" fill="none" xmlns="http://www.w3.org/2000/svg">
<g id="Group">
<path id="Vector" d="M20 17.2222C20 18.7567 18.7567 20 17.2222 20H2.77778C1.24389 20 0 18.7567 0 17.2222V2.77778C0 1.24333 1.24389 0 2.77778 0H17.2222C18.7567 0 20 1.24333 20 2.77778V17.2222Z" fill="black"/>
<path id="Vector_2" d="M13.8889 3.33334H11.1111V16.3889C12.5 16.3889 13.8811 16.6733 13.8889 16.6667C13.8966 16.66 13.8889 3.33334 13.8889 3.33334Z" fill="#B71C1C"/>
<path id="Vector_3" d="M6.11112 3.33334H8.8889V16.3889C7.50001 16.3889 6.1189 16.6733 6.11112 16.6667C6.10335 16.66 6.11112 3.33334 6.11112 3.33334Z" fill="#B71C1C"/>
<path id="Vector_4" d="M8.88886 3.33334H6.11108L11.1111 16.3889C12.5 16.3889 13.8811 16.6733 13.8889 16.6667C13.8966 16.66 8.88886 3.33334 8.88886 3.33334Z" fill="#E53935"/>
</g>
</svg>
