<svg width="42" height="32" viewBox="0 0 42 32" fill="none" xmlns="http://www.w3.org/2000/svg">
<path fill-rule="evenodd" clip-rule="evenodd" d="M10.394 0.302979H31.6062C32.2178 0.302979 32.7821 0.6321 33.0832 1.16445L36.0529 6.41445L36.0583 6.42412L41.1332 15.1465L38.1996 16.8533L36.2728 13.5416V28.2499C36.2728 30.143 34.766 31.6969 32.8789 31.6969H9.12132C7.23425 31.6969 5.72738 30.143 5.72738 28.2499V13.5406L3.8 16.8533L0.866455 15.1465L5.95736 6.3965L5.95743 6.39654L8.917 1.16445C9.21813 0.6321 9.78243 0.302979 10.394 0.302979ZM32.6258 7.25L30.6156 3.69631H11.3819L9.3717 7.25H32.6258ZM24.3944 14.25H17.6066C16.6686 14.25 15.9096 13.4673 15.9096 12.5C15.9096 11.5327 16.6686 10.75 17.6066 10.75H24.3944C25.3324 10.75 26.0914 11.5327 26.0914 12.5C26.0914 13.4673 25.3324 14.25 24.3944 14.25Z" fill="#2DA192"/>
</svg>
