<svg width="20" height="20" viewBox="0 0 20 20" fill="none" xmlns="http://www.w3.org/2000/svg">
<g id="Group">
<path id="Vector" fill-rule="evenodd" clip-rule="evenodd" d="M10 20C15.508 20 20 15.508 20 10C20 4.4925 15.508 0 10 0C4.492 0 0 4.4925 0 10C0 15.508 4.492 20 10 20Z" fill="#4CAF50"/>
<path id="Vector_2" fill-rule="evenodd" clip-rule="evenodd" d="M19.8755 11.4945C18.1085 10.9335 17.277 7.75 15.2495 3.4375L11.7495 3.976C12.557 6.4285 16.14 12.412 12.1135 13.4025C8.66201 14.2985 7.03601 8.197 5.74951 4.9375L1.74951 5.9375L6.83851 19.478C7.83401 19.813 8.89451 20 10 20C10.491 20 10.9705 19.953 11.4425 19.884L9.22101 15.696C12.655 16.472 15.375 15.2615 15.702 12.5945C16.5655 13.7395 17.7465 14.186 19.069 14.1805C19.459 13.341 19.732 12.4405 19.8755 11.4945Z" fill="white"/>
</g>
</svg>
