<svg width="20" height="20" viewBox="0 0 20 20" fill="none" xmlns="http://www.w3.org/2000/svg">
<g id="Group">
<path id="Vector" d="M20 3.88889V16.1111C20 16.5722 19.9222 17.0111 19.7722 17.4167C19.3833 18.5167 18.5167 19.3833 17.4167 19.7722C17.0111 19.9222 16.5722 20 16.1111 20H3.88889C1.73889 20 0 18.2611 0 16.1111V3.88889C0 3.42778 0.0777777 2.98889 0.227778 2.58333C0.616667 1.48333 1.48333 0.616667 2.58333 0.227778C2.98889 0.0777777 3.42778 0 3.88889 0H16.1111C18.2611 0 20 1.73889 20 3.88889Z" fill="#4FC3F7"/>
<path id="Vector_2" d="M8.21111 20H3.88889C1.73889 20 0 18.2611 0 16.1111V11.7889L8.21111 20Z" fill="#0E5FA0"/>
<path id="Vector_3" d="M12.9333 20H8.21111L0 11.7889V7.06668L12.9333 20Z" fill="#0277BD"/>
<path id="Vector_4" d="M17.4167 19.7722C17.0111 19.9222 16.5722 20 16.1111 20H12.9333L0 7.06668V3.8889C0 3.42779 0.0777777 2.9889 0.227778 2.58334L17.4167 19.7722Z" fill="#0288D1"/>
<path id="Vector_5" d="M19.7722 17.4167C19.3833 18.5167 18.5167 19.3833 17.4167 19.7722L0.227783 2.58334C0.616672 1.48334 1.48334 0.616672 2.58334 0.227783L19.7722 17.4167Z" fill="#039BE5"/>
<path id="Vector_6" d="M20 12.9333V16.1111C20 16.5722 19.9222 17.0111 19.7722 17.4167L2.58331 0.227778C2.98887 0.0777777 3.42776 0 3.88887 0H7.06665L20 12.9333Z" fill="#03A9F4"/>
<path id="Vector_7" d="M20 8.21111V12.9333L7.06665 0H11.7889L20 8.21111Z" fill="#29B6F6"/>
<path id="Vector_8" d="M12.2322 4.8061C12.3178 4.75499 12.4061 4.69999 12.4989 4.65221C12.7383 4.52943 13.0044 4.46777 13.275 4.4811C13.47 4.49166 13.6478 4.5461 13.7844 4.68943C13.9144 4.82277 13.9622 4.98666 13.9761 5.16443C13.9794 5.20221 13.9794 5.23943 13.9794 5.28055V7.05055C13.9794 7.20443 13.9589 7.22443 13.8055 7.22443H13.3889C13.3617 7.22443 13.3344 7.22443 13.3067 7.2211C13.2661 7.21777 13.2317 7.18332 13.2244 7.14277C13.2172 7.10499 13.2172 7.06777 13.2172 7.02999V5.44721C13.2205 5.38221 13.2139 5.3211 13.1967 5.25943C13.1694 5.15332 13.0739 5.07832 12.9644 5.07166C12.7628 5.05832 12.5611 5.09888 12.3767 5.18443C12.3494 5.19166 12.3322 5.21888 12.3361 5.2461V7.04388C12.3361 7.07832 12.3361 7.10888 12.3289 7.14277C12.3289 7.19055 12.2911 7.22499 12.2433 7.22499C12.1922 7.22832 12.1411 7.22832 12.0861 7.22832H11.7239C11.5978 7.22832 11.57 7.19721 11.57 7.0711V5.45443C11.57 5.3961 11.5667 5.33443 11.5533 5.27666C11.5294 5.16055 11.4305 5.07832 11.3139 5.07166C11.1089 5.05832 10.9005 5.09888 10.7155 5.18777C10.6883 5.19499 10.6711 5.22555 10.6778 5.25277V7.07443C10.6778 7.20055 10.6505 7.22832 10.5239 7.22832H10.0655C9.94554 7.22832 9.91554 7.19388 9.91554 7.07832V4.7061C9.91554 4.67888 9.91888 4.65166 9.9261 4.62388C9.93943 4.58332 9.98054 4.55888 10.0217 4.55888H10.4489C10.5105 4.55888 10.5478 4.59666 10.5689 4.65443C10.5855 4.70221 10.5961 4.74721 10.6133 4.79832C10.6478 4.79832 10.6678 4.77443 10.6917 4.76055C10.8794 4.64443 11.0778 4.54499 11.3 4.50443C11.4711 4.46999 11.6417 4.46999 11.8128 4.50443C11.9733 4.53888 12.1172 4.63443 12.2094 4.7711C12.2167 4.78166 12.2228 4.78777 12.23 4.79499C12.2255 4.79888 12.2289 4.79888 12.2322 4.8061ZM7.1811 4.9361C7.20499 4.92888 7.22554 4.91555 7.23943 4.89555C7.3011 4.83388 7.36554 4.77555 7.43443 4.72166C7.61221 4.58499 7.83443 4.51666 8.05665 4.53388C8.14554 4.53721 8.17665 4.56499 8.18276 4.64999C8.18999 4.7661 8.1861 4.88555 8.1861 5.00221C8.18943 5.04999 8.1861 5.09499 8.17888 5.14221C8.16554 5.20388 8.1411 5.22777 8.07999 5.23499C8.03221 5.23832 7.98721 5.23499 7.93999 5.23166C7.7111 5.2111 7.48887 5.25555 7.27332 5.32721C7.22554 5.34388 7.22554 5.37832 7.22554 5.4161V7.05555C7.22554 7.08666 7.22554 7.11388 7.22221 7.14443C7.21888 7.18888 7.18443 7.22277 7.13999 7.22277C7.1161 7.2261 7.08887 7.2261 7.06499 7.2261H6.62054C6.59665 7.2261 6.56943 7.2261 6.54554 7.22277C6.5011 7.21943 6.46721 7.18221 6.46332 7.13721C6.45999 7.10999 6.45999 7.08277 6.45999 7.05499V4.73055C6.45999 4.57332 6.47665 4.55666 6.63388 4.55666H6.96221C7.0511 4.55666 7.09221 4.58777 7.1161 4.67277C7.13999 4.75832 7.16054 4.84388 7.1811 4.9361ZM8.51388 5.8861V4.67277C8.51721 4.59055 8.54832 4.55999 8.62999 4.55666C8.80776 4.55332 8.98554 4.55332 9.16332 4.55666C9.24165 4.55666 9.26554 4.58055 9.27276 4.65888C9.2761 4.68999 9.2761 4.71721 9.2761 4.74777V7.02388C9.2761 7.06166 9.27276 7.09888 9.26888 7.13666C9.26554 7.1811 9.2311 7.21166 9.18665 7.21499C9.1661 7.21832 9.14888 7.21832 9.12832 7.21832H8.65332C8.63665 7.21832 8.62221 7.21832 8.60554 7.21499C8.55776 7.21166 8.51665 7.17443 8.51276 7.1261C8.50943 7.09888 8.50943 7.07166 8.50943 7.04388C8.51388 6.66499 8.51388 6.27555 8.51388 5.8861ZM8.91054 3.33277C8.96499 3.32943 9.01999 3.33999 9.0711 3.35666C9.25554 3.41832 9.3511 3.57888 9.33443 3.78721C9.3211 3.96499 9.18776 4.10832 9.00943 4.1361C8.93443 4.14943 8.85554 4.14943 8.78054 4.1361C8.58554 4.09832 8.44221 3.95499 8.45554 3.70888C8.4761 3.4661 8.63665 3.33277 8.91054 3.33277ZM5.95387 5.6061C5.94054 5.42832 5.89221 5.25388 5.82054 5.09332C5.68054 4.79943 5.46499 4.58388 5.13721 4.50888C4.7611 4.42666 4.42276 4.50888 4.11499 4.73777C4.09443 4.75832 4.07054 4.77555 4.04332 4.78888C4.0361 4.78555 4.02999 4.78166 4.02999 4.77832C4.01943 4.74388 4.01332 4.70999 4.00276 4.6761C3.97554 4.59055 3.9411 4.55999 3.84888 4.55999C3.74665 4.55999 3.64054 4.56332 3.53776 4.55999C3.45943 4.55666 3.38776 4.56721 3.33276 4.62832C3.33276 5.82443 3.33276 7.02444 3.3361 8.21666C3.38054 8.28832 3.44888 8.30221 3.52776 8.29888C3.65054 8.29555 3.77387 8.29888 3.89665 8.29888C4.11221 8.29888 4.11221 8.29888 4.11221 8.08721V7.11332C4.11221 7.08943 4.10165 7.06221 4.12554 7.04166C4.29665 7.17499 4.50499 7.25721 4.72054 7.27721C5.02165 7.30832 5.29443 7.23277 5.52387 7.02777C5.69165 6.87388 5.81443 6.67555 5.87943 6.45666C5.97165 6.17666 5.97776 5.89277 5.95387 5.6061ZM5.13721 6.31332C5.11332 6.41943 5.05887 6.51499 4.97999 6.58666C4.8911 6.66166 4.78165 6.70666 4.66554 6.70666C4.49165 6.71721 4.32054 6.67943 4.16665 6.59721C4.12888 6.58055 4.10499 6.54277 4.10832 6.50166V5.88277C4.10832 5.67777 4.11165 5.47221 4.10832 5.26777C4.10499 5.21999 4.13221 5.17888 4.17665 5.16166C4.36443 5.07277 4.55943 5.03166 4.76443 5.07277C4.90832 5.09332 5.0311 5.18555 5.08943 5.31888C5.14054 5.42832 5.17165 5.54777 5.17832 5.66777C5.19888 5.8861 5.19887 6.10499 5.13721 6.31332ZM15.2267 6.10832C15.4828 6.1561 15.7461 6.15943 16.0028 6.11888C16.1528 6.09832 16.2967 6.05388 16.43 5.98221C16.5839 5.89332 16.6967 5.77055 16.7444 5.59943C16.8644 5.16888 16.6794 4.73443 16.2317 4.57443C16.0128 4.50277 15.7805 4.47888 15.5517 4.50943C15.0117 4.5711 14.66 4.86832 14.4994 5.38443C14.3867 5.73666 14.4005 6.09499 14.4922 6.45055C14.6122 6.90499 14.9128 7.17499 15.3672 7.27055C15.6267 7.32888 15.89 7.31832 16.15 7.27777C16.2867 7.25388 16.4233 7.21943 16.5533 7.16832C16.6317 7.13721 16.6733 7.08999 16.6694 7.00055C16.6661 6.91832 16.6694 6.83277 16.6694 6.74777C16.6694 6.64555 16.6289 6.61443 16.5294 6.63832C16.43 6.66221 16.3344 6.68277 16.2355 6.70332C16.0239 6.74777 15.805 6.74777 15.5928 6.71055C15.3022 6.65221 15.1144 6.40332 15.1311 6.09555C15.1617 6.09832 15.1955 6.1011 15.2267 6.10832ZM15.1411 5.58555C15.1517 5.50332 15.1755 5.42499 15.2061 5.34999C15.3083 5.10055 15.5239 5.01499 15.7428 5.02888C15.8044 5.03221 15.8655 5.04555 15.9239 5.06943C16.0128 5.10721 16.0705 5.18943 16.0811 5.28499C16.0917 5.34332 16.0883 5.40499 16.0705 5.46277C16.03 5.58555 15.9305 5.63666 15.8111 5.6611C15.7394 5.67777 15.6644 5.68499 15.5889 5.67777C15.4555 5.67777 15.3189 5.66721 15.1855 5.64666C15.1339 5.63999 15.1339 5.63999 15.1411 5.58555Z" fill="white"/>
<path id="Vector_9" d="M4.62335 11.7595C4.64502 11.6861 4.66724 11.6161 4.68946 11.5434C4.8578 10.975 5.02669 10.4106 5.19502 9.84168L5.21669 9.77557C5.23502 9.70946 5.29724 9.66891 5.36335 9.66891H5.92113C6.06058 9.66891 6.08946 9.70946 6.04224 9.84168L5.82224 10.4245C5.57669 11.0628 5.33058 11.7045 5.08502 12.3422C5.0778 12.3639 5.06669 12.3861 5.05891 12.4084C5.0328 12.4856 4.95669 12.5367 4.87558 12.5295C4.71446 12.5261 4.5528 12.5261 4.39169 12.5295C4.2778 12.5328 4.21224 12.4817 4.17169 12.3795C4.08002 12.1372 3.98447 11.8917 3.89335 11.65C3.67335 11.0739 3.44946 10.4984 3.22946 9.91891C3.2078 9.87502 3.1928 9.82335 3.18169 9.77557C3.17058 9.70224 3.19613 9.66557 3.26946 9.66557C3.47835 9.66224 3.6878 9.66557 3.8928 9.66557C3.98058 9.66557 4.02113 9.72446 4.0428 9.80113C4.08335 9.94057 4.12335 10.0839 4.1678 10.2228C4.3178 10.7328 4.46446 11.2461 4.61558 11.7556C4.61224 11.7595 4.61613 11.7595 4.62335 11.7595ZM7.22002 11.0995V12.4195C7.2128 12.4928 7.17946 12.5261 7.10613 12.5295C6.90835 12.5328 6.71391 12.5328 6.51558 12.5295C6.44224 12.5295 6.40891 12.4928 6.40169 12.4228C6.39835 12.4011 6.39835 12.375 6.39835 12.3534V9.81557C6.40169 9.70168 6.43113 9.66891 6.54502 9.66891H7.07335C7.18724 9.66891 7.22002 9.70168 7.22002 9.81557V11.0995ZM6.8128 8.35224C6.88613 8.34502 6.95947 8.35946 7.02891 8.38891C7.17224 8.44391 7.27113 8.57613 7.27835 8.73002C7.3078 9.06391 7.08391 9.23224 6.78669 9.22502C6.74613 9.22502 6.70613 9.2178 6.66558 9.21057C6.43835 9.15557 6.32113 8.97946 6.3428 8.72668C6.36113 8.52502 6.51891 8.37446 6.73502 8.35613C6.76113 8.35224 6.78724 8.34891 6.8128 8.35224ZM16.8167 10.8867C16.82 10.845 16.8056 10.7584 16.8056 10.755C16.7984 10.6856 16.7839 10.6156 16.765 10.5495C16.6295 10.0656 16.325 9.74613 15.83 9.62168C15.5989 9.56668 15.3645 9.55946 15.1295 9.59557C14.6345 9.66891 14.2784 9.9328 14.1061 10.4022C13.9378 10.85 13.9411 11.3411 14.1095 11.7884C14.2561 12.195 14.5495 12.4522 14.9717 12.5584C15.1956 12.6134 15.43 12.6278 15.6611 12.595C16.4311 12.5034 16.7506 11.92 16.8017 11.4145C16.8017 11.4145 16.82 11.2622 16.82 11.1928L16.8167 10.8867ZM15.9367 11.5684C15.915 11.6456 15.8817 11.715 15.8345 11.7811C15.7539 11.895 15.6256 11.9684 15.4861 11.9789C15.4167 11.9861 15.3467 11.9861 15.2772 11.9717C15.1228 11.9422 14.9945 11.84 14.9328 11.6967C14.8778 11.5828 14.845 11.4584 14.8339 11.3334C14.8156 11.1172 14.8122 10.9006 14.8634 10.6878C14.8817 10.6034 14.9184 10.5195 14.9622 10.4456C15.0428 10.3139 15.1822 10.2295 15.3361 10.2184C15.4056 10.2111 15.4756 10.2111 15.545 10.2256C15.6917 10.255 15.8128 10.3506 15.8789 10.4856C15.9411 10.6139 15.9778 10.7572 15.9856 10.9C15.9889 10.9661 15.9928 11.0317 15.9889 11.0978C15.9989 11.2606 15.9806 11.4184 15.9367 11.5684ZM10.3884 8.37835H9.87835C9.73891 8.37835 9.71335 8.40446 9.71335 8.54335V9.73168C9.71335 9.7578 9.72447 9.7828 9.70613 9.80891C9.67335 9.80557 9.65502 9.7828 9.62891 9.76835C9.24724 9.54446 8.8478 9.50446 8.44391 9.69113C8.16113 9.8228 7.98558 10.0617 7.87169 10.3439C7.76169 10.6156 7.73613 10.9017 7.74335 11.1911C7.74335 11.4628 7.80558 11.73 7.92669 11.9722C8.06613 12.24 8.2678 12.445 8.56113 12.5334C8.96113 12.6584 9.33502 12.5956 9.67558 12.3428C9.70169 12.3284 9.71613 12.3022 9.74891 12.295C9.76724 12.3356 9.78169 12.3795 9.78947 12.4234C9.80391 12.4822 9.85558 12.5222 9.9178 12.5222H10.0056C10.1372 12.5222 10.2656 12.5256 10.3945 12.5222C10.4967 12.5222 10.5261 12.4895 10.53 12.3828V8.5178C10.5272 8.40391 10.4984 8.37835 10.3884 8.37835ZM9.71724 11.0772V11.7445C9.72446 11.7884 9.69891 11.8289 9.65835 11.8467C9.48224 11.9456 9.28058 11.9861 9.08224 11.9567C8.91391 11.9384 8.76669 11.8356 8.69002 11.685C8.63113 11.5678 8.59835 11.4428 8.5878 11.3145C8.55835 11.0834 8.57669 10.8489 8.63169 10.625C8.65002 10.5628 8.67224 10.5039 8.70502 10.4456C8.78224 10.3022 8.92891 10.2106 9.09002 10.2C9.28446 10.1817 9.47891 10.2184 9.65447 10.2989C9.69835 10.3134 9.72391 10.3578 9.72058 10.4056C9.71335 10.6334 9.71724 10.8539 9.71724 11.0772ZM12.6028 11.3672C12.8156 11.3528 13.0278 11.3122 13.2189 11.2095C13.4134 11.1139 13.5489 10.9345 13.5895 10.7217C13.6156 10.59 13.6156 10.45 13.5861 10.3184C13.5089 9.98835 13.3 9.78335 12.985 9.67668C12.8089 9.62168 12.6217 9.59946 12.4384 9.60724C11.8222 9.62168 11.3534 9.93335 11.1622 10.55C11.0339 10.9567 11.0522 11.3717 11.1767 11.7784C11.305 12.1967 11.5984 12.4495 12.0161 12.5634C12.1956 12.6072 12.3828 12.6256 12.5661 12.6184C12.8339 12.615 13.1011 12.5634 13.3545 12.4684C13.4611 12.4278 13.4861 12.3911 13.4861 12.2778V12.0139C13.4828 11.9072 13.4384 11.8706 13.3317 11.8967C13.2511 11.9184 13.1739 11.9372 13.0934 11.9556C12.8478 12.0145 12.5911 12.025 12.3411 11.9817C12.0917 11.9339 11.9228 11.7911 11.8572 11.5417C11.8389 11.4684 11.8245 11.395 11.8167 11.3178C11.835 11.3178 11.8534 11.3178 11.8678 11.325C12.1117 11.3672 12.3572 11.3856 12.6028 11.3672ZM11.8367 10.78C11.8628 10.6367 11.8956 10.4972 11.9834 10.38C12.1189 10.2006 12.3061 10.1489 12.5184 10.1711C12.5367 10.1711 12.5511 10.1784 12.5695 10.1784C12.8261 10.2189 12.8884 10.4239 12.8411 10.6222C12.8045 10.7689 12.6834 10.8239 12.5478 10.8495C12.4745 10.8639 12.3978 10.8711 12.3206 10.8678C12.1706 10.8645 12.0239 10.8534 11.8767 10.8311C11.8439 10.8278 11.8295 10.8134 11.8367 10.78Z" fill="white"/>
<path id="Vector_10" d="M10.2078 16.6655C10.0794 16.6622 9.95056 16.6622 9.82278 16.6655C9.64611 16.6561 9.46945 16.6494 9.29278 16.6367C8.82389 16.6011 8.35778 16.5305 7.90223 16.4244C6.325 16.0583 4.94056 15.3228 3.73278 14.2533C3.62 14.1533 3.51445 14.0511 3.405 13.9478C3.37945 13.925 3.35667 13.8928 3.34389 13.8611C3.32445 13.8161 3.33445 13.7678 3.36667 13.7328C3.39889 13.6978 3.45056 13.6844 3.495 13.7039C3.52389 13.7167 3.55278 13.7294 3.57889 13.7455C4.73223 14.4589 5.99111 14.9789 7.31111 15.2872C7.75445 15.39 8.20056 15.47 8.65056 15.5283C9.29611 15.6089 9.94778 15.6378 10.5967 15.615C10.9467 15.6055 11.2939 15.5733 11.6406 15.5283C12.45 15.4255 13.25 15.2422 14.0239 14.9855C14.4317 14.8511 14.83 14.6961 15.2189 14.5167C15.2767 14.4844 15.3472 14.475 15.4117 14.4911C15.5178 14.5167 15.5817 14.6255 15.5561 14.7322C15.5528 14.745 15.5467 14.7611 15.54 14.7739C15.5144 14.8222 15.4789 14.8639 15.4339 14.8955C15.0644 15.185 14.6661 15.4383 14.2456 15.6505C13.4522 16.0517 12.6039 16.3378 11.7306 16.5017C11.2261 16.5917 10.7189 16.6461 10.2078 16.6655ZM15.7294 13.5339C15.9417 13.5405 16.15 13.5533 16.3556 13.6078C16.4133 13.6239 16.4683 13.6433 16.5222 13.6689C16.5961 13.6978 16.6439 13.7689 16.6539 13.8455C16.6667 13.9355 16.67 14.0283 16.6633 14.1217C16.6217 14.6711 16.4511 15.2005 16.1683 15.6728C16.0656 15.8428 15.9406 15.9972 15.7961 16.1322C15.7672 16.1611 15.7317 16.1839 15.6933 16.1967C15.6322 16.2128 15.5933 16.1805 15.5906 16.1194C15.5939 16.0872 15.6 16.055 15.6133 16.0228C15.7261 15.7205 15.835 15.4222 15.9217 15.1105C15.9733 14.9405 16.0083 14.7672 16.0311 14.59C16.0378 14.5255 16.0406 14.4617 16.0344 14.3972C16.0311 14.2878 15.9606 14.195 15.8544 14.1628C15.7544 14.1305 15.6522 14.1111 15.5461 14.105C15.2506 14.0922 14.9556 14.105 14.6628 14.1439L14.2744 14.1922C14.2328 14.1955 14.1939 14.1922 14.1717 14.1533C14.1489 14.1144 14.1589 14.0761 14.1811 14.0378C14.2067 14.0022 14.2389 13.97 14.2778 13.9478C14.5156 13.7778 14.7822 13.6744 15.065 13.6072C15.2828 13.5622 15.5044 13.5405 15.7294 13.5339Z" fill="white"/>
</g>
</svg>
