<svg width="24" height="24" viewBox="0 0 24 24" fill="none" xmlns="http://www.w3.org/2000/svg">
<circle cx="12" cy="12" r="12" fill="#EAF1F6"/>
<path d="M11.9039 5.60001C11.5644 5.60001 11.2389 5.73486 10.9988 5.97491C10.7588 6.21496 10.6239 6.54053 10.6239 6.88001C10.6241 7.10452 10.6833 7.32504 10.7956 7.51943C10.908 7.71382 11.0695 7.87525 11.2639 7.98751V9.53126C11.47 9.4775 11.6818 9.44001 11.9039 9.44001C12.126 9.44001 12.3378 9.4775 12.5439 9.53126V7.98626C12.7382 7.8741 12.8995 7.71288 13.0119 7.51872C13.1242 7.32457 13.1835 7.10431 13.1839 6.88001C13.1839 6.54053 13.049 6.21496 12.809 5.97491C12.569 5.73486 12.2434 5.60001 11.9039 5.60001ZM6.78391 8.16001C6.44443 8.16001 6.11886 8.29486 5.87881 8.53491C5.63876 8.77496 5.50391 9.10053 5.50391 9.44001C5.50391 9.77948 5.63876 10.1051 5.87881 10.3451C6.11886 10.5851 6.44443 10.72 6.78391 10.72C7.03465 10.7198 7.27979 10.6459 7.48891 10.5075L9.40266 11.465C9.49482 11.0317 9.7017 10.6457 9.98266 10.3238L8.06016 9.36251C8.04043 9.03728 7.89742 8.73183 7.66028 8.50839C7.42314 8.28496 7.10973 8.16036 6.78391 8.16001ZM17.0239 8.16001C16.6981 8.16036 16.3847 8.28496 16.1475 8.50839C15.9104 8.73183 15.7674 9.03728 15.7477 9.36251L13.8252 10.325C14.1061 10.6463 14.313 11.0317 14.4052 11.465L16.3202 10.5075C16.5289 10.6456 16.7736 10.7195 17.0239 10.72C17.3634 10.72 17.689 10.5851 17.929 10.3451C18.169 10.1051 18.3039 9.77948 18.3039 9.44001C18.3039 9.10053 18.169 8.77496 17.929 8.53491C17.689 8.29486 17.3634 8.16001 17.0239 8.16001ZM11.9039 10.72C11.5644 10.72 11.2389 10.8549 10.9988 11.0949C10.7588 11.335 10.6239 11.6605 10.6239 12C10.6239 12.3395 10.7588 12.6651 10.9988 12.9051C11.2389 13.1451 11.5644 13.28 11.9039 13.28C12.2434 13.28 12.569 13.1451 12.809 12.9051C13.049 12.6651 13.1839 12.3395 13.1839 12C13.1839 11.6605 13.049 11.335 12.809 11.0949C12.569 10.8549 12.2434 10.72 11.9039 10.72ZM9.40266 12.535L7.48766 13.4925C7.2789 13.3544 7.03422 13.2805 6.78391 13.28C6.44443 13.28 6.11886 13.4149 5.87881 13.6549C5.63876 13.895 5.50391 14.2205 5.50391 14.56C5.50391 14.8995 5.63876 15.2251 5.87881 15.4651C6.11886 15.7051 6.44443 15.84 6.78391 15.84C7.10973 15.8396 7.42314 15.7151 7.66028 15.4916C7.89742 15.2682 8.04043 14.9627 8.06016 14.6375L9.98266 13.675C9.7017 13.3537 9.49482 12.9683 9.40266 12.535ZM14.4052 12.5363C14.313 12.9689 14.1061 13.3543 13.8252 13.6763L15.7477 14.6375C15.7674 14.9627 15.9104 15.2682 16.1475 15.4916C16.3847 15.7151 16.6981 15.8396 17.0239 15.84C17.3634 15.84 17.689 15.7051 17.929 15.4651C18.169 15.2251 18.3039 14.8995 18.3039 14.56C18.3039 14.2205 18.169 13.895 17.929 13.6549C17.689 13.4149 17.3634 13.28 17.0239 13.28C16.7732 13.2803 16.528 13.3541 16.3189 13.4925L14.4052 12.5363ZM11.2639 14.4688V16.0138C11.0697 16.1259 10.9083 16.2871 10.796 16.4813C10.6836 16.6754 10.6243 16.8957 10.6239 17.12C10.6239 17.4595 10.7588 17.7851 10.9988 18.0251C11.2389 18.2651 11.5644 18.4 11.9039 18.4C12.2434 18.4 12.569 18.2651 12.809 18.0251C13.049 17.7851 13.1839 17.4595 13.1839 17.12C13.1837 16.8955 13.1245 16.675 13.0122 16.4806C12.8998 16.2862 12.7383 16.1248 12.5439 16.0125V14.4688C12.3378 14.5225 12.126 14.56 11.9039 14.56C11.6818 14.56 11.47 14.5225 11.2639 14.4688Z" fill="#2F6FA7"/>
</svg>
