<svg width="24" height="24" viewBox="0 0 24 24" fill="none" xmlns="http://www.w3.org/2000/svg">
<path d="M12.5658 4L4.49342 12.0724C4.17511 12.3907 4 12.8135 4 13.2632C4 13.7128 4.17511 14.1356 4.49342 14.4539L9.54605 19.5066C9.86437 19.8249 10.2872 20 10.7368 20C11.1865 20 11.6093 19.8249 11.9276 19.5066L20 11.4342V4H12.5658ZM13.2632 5.68421H18.3158V10.7368L10.7368 18.3158L5.68421 13.2632L13.2632 5.68421ZM15.7895 7.36842C15.5661 7.36842 15.3519 7.45714 15.194 7.61507C15.0361 7.77299 14.9474 7.98719 14.9474 8.21053C14.9474 8.43387 15.0361 8.64806 15.194 8.80598C15.3519 8.96391 15.5661 9.05263 15.7895 9.05263C16.0128 9.05263 16.227 8.96391 16.3849 8.80598C16.5429 8.64806 16.6316 8.43387 16.6316 8.21053C16.6316 7.98719 16.5429 7.77299 16.3849 7.61507C16.227 7.45714 16.0128 7.36842 15.7895 7.36842Z" fill="#2A2A2C"/>
</svg>
