<svg width="20" height="16" viewBox="0 0 20 16" fill="none" xmlns="http://www.w3.org/2000/svg">
<g id="Group">
<path id="Vector" d="M19.5511 12.9377C19.3516 13.985 18.5037 14.783 17.4564 14.9327C15.8105 15.182 13.0673 15.4813 9.97506 15.4813C6.93267 15.4813 4.18953 15.182 2.49377 14.9327C1.44638 14.783 0.598504 13.985 0.399003 12.9377C0.199501 11.7905 0 10.0948 0 8C0 5.90524 0.199501 4.20948 0.399003 3.06235C0.598504 2.01497 1.44638 1.21696 2.49377 1.06734C4.13965 0.817959 6.88279 0.518707 9.97506 0.518707C13.0673 0.518707 15.7606 0.817959 17.4564 1.06734C18.5037 1.21696 19.3516 2.01497 19.5511 3.06235C19.7506 4.20948 20 5.90524 20 8C19.9501 10.0948 19.7506 11.7905 19.5511 12.9377Z" fill="#FF3D00"/>
<path id="Vector_2" d="M7.98004 11.4913V4.50873L13.9651 8L7.98004 11.4913Z" fill="white"/>
</g>
</svg>
