<svg width="24" height="24" viewBox="0 0 24 24" fill="none" xmlns="http://www.w3.org/2000/svg">
<circle cx="12" cy="12" r="12" fill="#2F6FA7"/>
<path d="M18.0364 8.27904C17.8892 7.72864 17.4553 7.29473 16.9049 7.14753C15.9065 6.88001 11.9039 6.88 11.9039 6.88C11.9039 6.88 7.90135 6.88001 6.90295 7.14753C6.35255 7.29473 5.91863 7.72864 5.77143 8.27904C5.50391 9.27744 5.50391 12 5.50391 12C5.50391 12 5.50391 14.7226 5.77143 15.721C5.91863 16.2714 6.35255 16.7053 6.90295 16.8525C7.90135 17.12 11.9039 17.12 11.9039 17.12C11.9039 17.12 15.9065 17.12 16.9049 16.8525C17.4559 16.7053 17.8892 16.2714 18.0364 15.721C18.3039 14.7226 18.3039 12 18.3039 12C18.3039 12 18.3039 9.27744 18.0364 8.27904ZM10.6239 14.217V9.78305L14.4639 12L10.6239 14.217Z" fill="white"/>
</svg>
